<svg xmlns="http://www.w3.org/2000/svg" viewBox="0 0 334.35 341"><defs><style>.cls-1{fill:#b28b67;}.cls-1,.cls-10,.cls-2,.cls-3,.cls-4,.cls-5,.cls-6,.cls-7,.cls-8,.cls-9{fill-rule:evenodd;}.cls-2{fill:#191847;}.cls-3{fill:#c5cfd6;}.cls-4{fill:#1f28cf;}.cls-5{fill:#2b44ff;}.cls-6{fill:#e4e4e4;}.cls-7{fill:#69a1ac;}.cls-8{fill:#89c5cc;}.cls-9{fill-opacity:0.1;}.cls-10{fill-opacity:0.4;}</style></defs><title>Asset 3</title><g id="Layer_2" data-name="Layer 2"><g id="Generate"><g id="Head"><path class="cls-1" d="M148.35,75h24l-4.06-28.76c6.47,3.91,12.84,5.79,15.82,5,7.49-1.93,8.18-29.32,2.39-40.13S150.91-4.38,149.41,17c-.52,7.42,2.6,14,7.2,19.46Z"/></g><path id="Combined-Shape" class="cls-2" d="M171.35,20l-2-6-12-1V12c13.85.1,23.49-.48,29-2-.25-4.69-5.13-10-18-10-14.32,0-22,8.35-22,18,0,8.82,5.68,19.56,10,20,1.12-.25,2.08-1.59,3-3.45a6,6,0,0,1-3-5.55,5.15,5.15,0,0,1,5-5,4.79,4.79,0,0,1,2.73.87C165.9,21.94,168.17,19.76,171.35,20Z"/><path id="Ballsy-Ball" class="cls-3" d="M0,268c0,40.59,55.83,73,98.35,73s77-32.91,77-73.5-34.47-73.5-77-73.5S0,227.41,0,268Z"/><path id="Skin" class="cls-1" d="M296,317.11c-10.65-65.26-19.52-108.46-24.6-121.61-3.35-8.69-28.73-7.67-25.81,9.81,1.22,7.33,6.07,27,12.43,49.27,3.72,13,13,37.72,25.8,66.08ZM138.92,243.62c4.5-.62,57-6.13,94.11-11.46,14.89-2.14,6.88-30-8.58-27.07-5.19,1-10.72,2.09-16.43,3.27-19.86,4.11-61,18.66-72.78,23.3C127.85,234.58,132.62,244.49,138.92,243.62Z"/><path id="Leg-Back" class="cls-4" d="M234.11,200.73c-.76,39.69,27.83,62.77,36.77,95.91l23.36-3.48c-2.39-6.13-9.7-88-21.89-104.76l-.09-.12a.74.74,0,0,0,0-.14q-2-6.63-94.31-30.14h-7.56v7.05l63.59,32.37A13.45,13.45,0,0,0,234.11,200.73Z"/><path id="Leg-Front" class="cls-5" d="M156.43,223.23l5.92,18.68c12.81-3.36,51.14,7.17,99.59-12.91a.88.88,0,0,0,.5-.78c9-6.42,14-31.07-1.88-37.9-24-10.34-70.35-29.76-79.27-32.32H126.73c-5.1,34.59,3.53,50.44,33.15,55.63,4.58.81,9.94,1.85,15.76,3Z"/><path id="shoe" class="cls-6" d="M139.4,228.69a2,2,0,0,1,2,1.95h0a16.24,16.24,0,0,0,1.08,6.32,18.07,18.07,0,0,0,5,5.5l4.42-.27h0a1,1,0,0,1,1,1l1,28.68c.63,2,1.47,4.53,2.5,7.54s-.94,4.91-5.94,5.72l-24.72-50.7a51.11,51.11,0,0,1,6.7-4.27,21.66,21.66,0,0,1,6.76-1.43Z"/><path class="cls-6" d="M278.09,315.27a2,2,0,0,1,2.65-1h0a16.2,16.2,0,0,0,6.15,1.79,18.06,18.06,0,0,0,7.13-2L295.7,310v0a1,1,0,0,1,1.32-.51l26.22,11.69q3.13.47,7.87,1t2.54,7.85H277.25a50.25,50.25,0,0,1-.9-7.89A21.46,21.46,0,0,1,278,315.4Z"/><path class="cls-1" d="M223.19,155.56l31.59,13.1q13.39,15.74,15,13.12c1.59-2.61-1.85-4.93-1.07-6.87s6.79-1.74,12.48-1.3,4-2.09,2.65-3.34a85.42,85.42,0,0,0-21.68-8.71l-31.9-23.43ZM58.38,191.2c-1.92,2.61-13.89,9.47-22,13.16-3.26,1.48-2.51,4.25-1.53,5.12,8,7.09,15,1.6,23.36-.63,9.17-2.45,6.49,8.56,13.74,6.73-1.25-5-4.55-14.43-1.28-19.68q2.19-3.5,32.84-64.34l-17.61-3.18Q62.29,185.86,58.38,191.2Z"/><path id="Back-Arm" class="cls-7" d="M172.62,55l-10.7,4.39c.47,11.56-1.18,43.34,3.69,52.69,14.5,27.88,46.33,40.61,80.19,57.49l8-16.43c-.93-.66-1.86-1.32-2.77-2a4.5,4.5,0,0,0-.05-8.51,34.07,34.07,0,0,0-13.36-2C207.7,115.42,187.53,85.86,172.62,55Z"/><path id="Shirt" class="cls-2" d="M157.35,55.4q11.11,1.62,15.56-.7c0,28.48,10.63,58.5,26.78,99.51,1,2.63,1.14,12.27-1.1,12.7q-27.08,5.18-74.24,0C128.29,118.43,137.44,84.75,157.35,55.4Z"/><path id="Coat-Front" class="cls-8" d="M74.24,279c41.24-16.48,83.62,4.15,113.3-2.48C203.6,194,157.35,97.28,160.7,53H149.33q-59,36.19-85,114.44a21.86,21.86,0,0,0-6,2.08c-1.83.95.71,6.62,2.89,7.86-.77,2.61-1.52,5.26-2.24,7.93l18.89,5.56q19.16-50.49,43.28-71.07c-.17,12,3.28,24.29,1.26,36.78-.23,1.48-.52,3-.86,4.47a4.51,4.51,0,0,0-3.9,3.69l-.52,3a4.5,4.5,0,0,0,1.35,4.06C106.52,206.69,75.77,245.75,74.24,279Z"/><polygon id="Shade-Lapel" class="cls-9" points="144.24 71.25 153.46 81.76 144.24 91.18 172.01 130 149.3 91.11 158.69 81.76 148.3 69.86 153.46 54 144.24 71.25"/><path id="Buttons" class="cls-10" d="M169.35,141a4,4,0,1,0-4,4A4,4,0,0,0,169.35,141Zm5,23a4,4,0,1,0-4,4A4,4,0,0,0,174.35,164Zm1,23a4,4,0,1,0-4,4A4,4,0,0,0,175.35,187Z"/></g></g></svg>