<svg xmlns="http://www.w3.org/2000/svg" viewBox="0 0 236 338"><defs><style>.cls-1{fill:#b28b67;}.cls-1,.cls-10,.cls-2,.cls-3,.cls-4,.cls-5,.cls-6,.cls-7,.cls-8,.cls-9{fill-rule:evenodd;}.cls-2{fill:#191847;}.cls-3{fill:#c5cfd6;}.cls-4{fill-opacity:0.1;}.cls-5{fill:#199384;}.cls-6{fill:#e4e4e4;}.cls-7{fill:#1ee3cf;}.cls-8{fill:#997659;}.cls-9{fill:#4532b2;}.cls-10{fill:#6b48ff;}</style></defs><title>Asset 1</title><g id="Layer_2" data-name="Layer 2"><g id="Home"><g id="Layer_3" data-name="Layer 3"><g id="Head"><path class="cls-1" d="M71,89H95L90.94,60.24c6.47,3.91,12.83,5.79,15.82,5,7.49-1.93,8.18-29.32,2.38-40.13S73.56,9.62,72.06,31c-.52,7.42,2.59,14,7.2,19.46Z"/></g><path id="hair" class="cls-2" d="M61.59,23.9c-2.55.14-5.67,1.27-7,3.81-1.74,3.3.75,7,3.46,8.58-4.94,4.36,4,10.32,7.67,10.57-.67,2.64,2.42,3.55,4.12,4.26a3.58,3.58,0,0,0-.12,4.7,4.42,4.42,0,0,0,5.49.42c.4-.27.47-.63.79-1a2,2,0,0,1,.94-.37,3.61,3.61,0,0,0,1.8-2.06c.78-1.69,1.1-3.69,2.4-5-1.67-.73-3.68-1.38-4.79-3.07-1.91-2.91.2-7,3.19-7.72,2.71-.7,5.77.79,7.49,3a12.92,12.92,0,0,1,2.53-4.32c.67-.74,1.88-1.8.3-2.23-3.51-.94-7.16-1.27-10.7-2.07,3.66,0,7.32.38,11,0,1.14-.11,2.3-.29,2.85-1.51a14.15,14.15,0,0,0,1.24-5A10.67,10.67,0,0,0,98,26c.5,0,1-.15,1.49-.15a1.79,1.79,0,0,1,1.36.62,12.64,12.64,0,0,0,5.84,3.06,13.87,13.87,0,0,0,3.83.48,2.14,2.14,0,0,0,.47-.16,5.59,5.59,0,0,1,1,.09,3.38,3.38,0,0,0,2.5-.73,2.75,2.75,0,0,0-.71-4.6A21.75,21.75,0,0,0,118,20.56a15.49,15.49,0,0,0,1.57-2.4,2.76,2.76,0,0,0,.43-1.72c-.43-1.75-3.8-.68-4.78-.21a3.38,3.38,0,0,1-.07-1.14,2.13,2.13,0,0,0,0-1.12,2.28,2.28,0,0,0-1.29-1.19,5.58,5.58,0,0,0-2.12-.47c-.37,0-1.23.24-1.41-.2a2.91,2.91,0,0,1,.12-1.34,18.44,18.44,0,0,0,.26-2c.07-.87.14-1.75.2-2.62a7.08,7.08,0,0,0,0-1.95c-.37-1.69-2.14-1.76-3.43-1.46A7.18,7.18,0,0,0,105,3.89c-.54.37-1,.79-1.58,1.17-.35.25-.63.6-1,.34-.92-.61-1.39-2-2.06-2.87A6.6,6.6,0,0,0,97.4.42a7.66,7.66,0,0,0-7.16,1.23,8.49,8.49,0,0,0-1.3,1.17c-.33.38-.59.67-1.1.55a4.2,4.2,0,0,1-1.26-.69c-.47-.32-1-.6-1.45-.87A10.43,10.43,0,0,0,78.77.53a7,7,0,0,0-5.22,3.41,14.26,14.26,0,0,0-1.68,7c-1.1-.46-2.07-1.2-3.2-1.57A9.12,9.12,0,0,0,65.12,9a7.52,7.52,0,0,0-5,2.16c-1.6,1.75-1.6,4.34-1.09,6.59A29.8,29.8,0,0,0,60,21a7.62,7.62,0,0,0,1.56,2.9"/><g id="Seat"><polygon id="Seat-Stuff" class="cls-3" points="0 338 115 338 104.88 214 27.62 214 0 338"/><polygon class="cls-4" points="0 338 65.6 338 51.38 214 27.62 214 0 338"/></g><path id="Skin" class="cls-1" d="M170.44,193.21c-3.91,6.34-13.21,24.34-23.12,45.36q-8.67,18.41-22.24,63.1l11.51,5.26q31.83-51.15,47-78.61c-.82,7.11-1.64,15.08-2.41,23.44-1.86,20.27,0,64.07,1,76.72.63,7.95,11.43,6.28,12.44,0S215,222.4,215,201.24c0-7.08-13.81-13.43-22.05-8.48C187.3,186.72,176.59,183.24,170.44,193.21Z"/><g id="LegLower"><path class="cls-5" d="M151.42,294.39c2.18-6,39.47-70.91,46.8-91,3.23-8.83-23.32-27.17-32.79-11.93L125.9,285.13Z"/></g><path id="shoe" class="cls-6" d="M123.82,295.68a2,2,0,0,1,2.79.47h0a16.1,16.1,0,0,0,4.42,4.64,18.13,18.13,0,0,0,7.2,1.79l3.5-2.7,0,0a1,1,0,0,1,1.39.23L160,323.32q2.48,2,6.29,4.84t-1.72,8.06L115.73,308a50.66,50.66,0,0,1,3.17-7.29,21.38,21.38,0,0,1,4.8-5Z"/><path class="cls-6" d="M179.73,323.27a2,2,0,0,1,2.65-1h0a16.29,16.29,0,0,0,6.16,1.79,18,18,0,0,0,7.12-2l1.69-4.09v0a1,1,0,0,1,1.32-.51l26.22,11.69c2.08.31,4.71.66,7.86,1s4,3,2.54,7.85H178.9a50.25,50.25,0,0,1-.9-7.89,21.46,21.46,0,0,1,1.68-6.71A.69.69,0,0,1,179.73,323.27Z"/><g id="Leg-and-Butt"><path class="cls-7" d="M205,190.39c-23.42-4.37-86.49-17.1-98.58-18.39H47c1,35,13.41,53.93,43.39,53.93,20.79,0,90.1-7.82,91.84-6.93q1.72.9-4.23,83.84l27.15,0c0-5.85,12.62-67.82,12.62-94.39C217.77,201.11,215,192.26,205,190.39Z"/></g><path class="cls-8" d="M128.46,123.46l25.22-23.09q19.92-5.5,18.22-8c-1.7-2.54-5.25-.41-6.68-1.94s1.3-6.88,4.09-11.85-.19-4.53-1.9-3.82a85.92,85.92,0,0,0-17.06,16l-34.71,19ZM170.87,141q9.87-7.12,18.37-9.5c10.83-3,15.21-5.32,20.51-12.07,2.83-3.61,5.23-10.86,2.54-13.22-1.83-1.6-12.4,6.27-16.73,7.16s-.36-9.4-2.64-8.33q-4.47.08-7.67,12.28L170,125.74Z"/><g id="Sleeve"><path class="cls-9" d="M107.82,128.1c14.67.41,31.44-9.32,43.38-21.16l-6.8-15.15a85.31,85.31,0,0,1-45.67,13.68C90.35,113.79,96.26,127.77,107.82,128.1Z"/></g><g id="Clothes"><path class="cls-10" d="M99.54,67H71.8c-3,0-23.73,39.64-23.74,65.4,0,23.51-21.9,38.45-10.59,75.21,18.08-3.56,71.82,14.51,81-5,4.47-9.5,5.8-19.89,5.21-30.81,18.41-.4,40.74-6.47,66.81-20.08q.85-10-10.45-33.35-45.58,16.22-64.94,11.39C108.78,108.35,101.07,86.67,99.54,67Z"/></g></g></g></g></svg>