<svg xmlns="http://www.w3.org/2000/svg" viewBox="0 0 273.87 430.5"><defs><style>.cls-1{fill:#b28b67;}.cls-1,.cls-10,.cls-2,.cls-3,.cls-4,.cls-5,.cls-6,.cls-7,.cls-8,.cls-9{fill-rule:evenodd;}.cls-2{fill:#191847;}.cls-3{fill:#997659;}.cls-4{fill:#e4e4e4;}.cls-5{fill:#69a1ac;}.cls-6{fill:#89c5cc;}.cls-7{fill:#e87613;}.cls-8{fill:#dde3e9;}.cls-9{fill:#ff9b21;}.cls-10{fill-opacity:0.1;}</style></defs><title>Asset 2</title><g id="Layer_2" data-name="Layer 2"><g id="Main"><g id="humaaan-3"><g id="Head"><path class="cls-1" d="M111.66,42.74c-6.33-4.31-11.43-10.31-13-18.16C94.33,2,126.81-1.51,135.88,8.07s16,38.18,8.65,42.28c-2.91,1.64-10.09,1.47-18-.76l12.24,28.68L113.71,85Z"/></g><path id="Hair" class="cls-2" d="M120.37,21.4q6.78,19.51,13,17.86c6.18-1.66,10.39-7,13.1-7.68,2-.53,2.2,2,1.37,4.21-.68,1.79-5.56,4.65-4.93,7s4.3-.59,4.67.79c.61,2.28,2.49,6.38-1.5,7.45S130,53.74,126.42,48.32q-3.47-5.24-8.89-23.21a7.37,7.37,0,0,0-.76.16,6.47,6.47,0,0,0-4.61,7.9,6.39,6.39,0,0,0,3.09,3.94c-.91,2.43-2,5-3.25,7.68-8.12-2.29-16.59-13.1-12.88-26.66.35-6.24,3.82-10.46,8.5-13.24A19.06,19.06,0,0,1,119.34.81C126.55-.47,133.41,0,135.53.76c1.77,6.61,1,8.92-10.08,11.7C123.12,14.61,121.69,17.61,120.37,21.4Z"/><polygon id="Leg" class="cls-3" points="125.94 172.44 179.1 306.48 214.76 419.81 228.84 419.81 174.33 172.44 125.94 172.44"/><path class="cls-1" d="M115.23,172.44c-.56,47.1-8.82,110.52-10.14,113.46q-1.32,2.93-91.07,74.68l9.69,10.34q105.91-61.51,110.81-69.72c4.9-8.2,20.85-83.7,33.66-128.76Z"/><path id="shoe" class="cls-4" d="M12.65,357.1a23.62,23.62,0,0,0-6.73,3.28A55.65,55.65,0,0,0,0,366.62l39.27,46.81q7.56-3.24,4.75-7.57t-4.61-7.26l-8.56-29.89a1.08,1.08,0,0,0-1.34-.75h0l-4.56,1.45c-3.17-1.48-5.39-3-6.66-4.49a17.24,17.24,0,0,1-2.79-6.36h0a2.17,2.17,0,0,0-2.67-1.51Z"/><path class="cls-4" d="M209,414.68a23.39,23.39,0,0,0-1.82,7.26,54.59,54.59,0,0,0,1,8.56h61.09q2.38-7.87-2.75-8.51T258,420.86l-28.4-12.66a1.08,1.08,0,0,0-1.43.55v0l-1.83,4.43a19.55,19.55,0,0,1-7.72,2.21,17.48,17.48,0,0,1-6.66-1.95h0a2.16,2.16,0,0,0-2.87,1.07Z"/><polygon id="Pant" class="cls-5" points="161.69 408.14 228.63 400.9 179.02 172.44 119.05 172.44 161.69 408.14"/><path class="cls-6" d="M27.86,343.9l43.92,51.78q69.38-75.49,80.9-98.51t20.7-124.73h-67.5q-5,89.48-6.77,93.64T27.86,343.9Z"/><path id="Skin" class="cls-1" d="M208.86,147.58l38.41,18.87A93,93,0,0,1,272,171.62c1.7,1.07,3.94,3.44-2.21,4s-12.58,1.51-13.06,3.72,3.63,4,2.43,7.1q-1.2,3.07-18.44-11.11l-36.15-8Zm-130.5,23.9,22.31-3.85q-9,70-9.88,74.32c-1.4,6.52,5.46,14.87,8.57,19.46-6.7,4.52-8-7.61-16.47-1.75-7.69,5.36-12.83,13.51-23.55,9.27-1.32-.52-3.11-3-.34-5.74,6.9-6.74,16.56-18.11,17.55-21.47Q78.56,234.87,78.36,171.48Z"/><path id="Coat-Back" class="cls-7" d="M125.3,67.23l9-3.21c39.41,23.39,63.43,77.43,110.66,100L237,178.23C162.65,182.1,132.46,116.34,125.3,67.23Z"/><path id="Shirt" class="cls-8" d="M105.43,189.67l81.62-14.39c3.73-.66,2.08-5.9,1.06-8.5-11.72-30.12-41.94-59.48-49.78-103.9l-24.19.48C100.16,98,100.2,137.51,105.43,189.67Z"/><path id="Coat-Front" class="cls-9" d="M90.15,99.17a13.65,13.65,0,0,1-9.33-5.41c-11.33-13.93-9.72-23-1-27.4s17.92-.11,32.57-2.69a15.61,15.61,0,0,1,2.22-.24l7.44-.88q50.58,101.39,42.66,139.65l-64.24,11.33a222.46,222.46,0,0,1-7,24.22L76,240.84Q59.46,161.76,90.15,99.17Z"/><path id="Shade" class="cls-10" d="M108,174.44q7.49,24.69,16.31,34.89l-23.84,4.2Q104.4,196.91,108,174.44Z"/></g></g></g></svg>